# xmcd
#
# Track frame offsets:
# 150
# 49681
# 83056
# 139822
# 191678
# 234034
# 280773
#
# Disc length: 4176 seconds
#
#
# Revision: 0
# Processed by: cddbd v1.5.2PL0 Copyright (c) Steve Scherf et al.
# Submitted via: FreeRIP 2.96 
#
DISCID=54104e07
DTITLE=Donna Leon - Lasset die Kinder zu mir kommen CD2v8
DYEAR=2008
DGENRE=Hörbuch
TTITLE0=08 Lasset die Kinder zu mir kommen
TTITLE1=09 Lasset die Kinder zu mir kommen
TTITLE2=10 Lasset die Kinder zu mir kommen
TTITLE3=11 Lasset die Kinder zu mir kommen
TTITLE4=12 Lasset die Kinder zu mir kommen
TTITLE5=13 Lasset die Kinder zu mir kommen
TTITLE6=14 Lasset die Kinder zu mir kommen
EXTD=ungekuerzte Lesung,\ngelesen von Jochen Striebeck
EXTT0=
EXTT1=
EXTT2=
EXTT3=
EXTT4=
EXTT5=
EXTT6=
PLAYORDER=
